<svg id="Layer_1" data-name="Layer 1" xmlns="http://www.w3.org/2000/svg" viewBox="0 0 109.9 96.93"><polygon points="84.3 78.81 84.3 85.23 13.82 85.23 13.82 14.75 84.3 14.75 84.3 21.28 87.3 20.44 87.3 11.75 10.82 11.75 10.82 88.23 87.3 88.23 87.3 78.81 84.3 78.81"/><path d="M21.39,42.22h8.16v3.1a14.61,14.61,0,0,1,10.2-3.75c7.69,0,12.1,4.73,12.1,12V73.2H43.69V53.54c0-3.82-2.63-5.66-6.9-5.66a10.56,10.56,0,0,0-7.24,2.63V73.2H21.39Z"/><path d="M87.92,73.2h-8V69.85a12.34,12.34,0,0,1-9.47,4c-9.73,0-15.19-6.38-15.19-16.31,0-8.62,5.52-16,15.59-16a15.17,15.17,0,0,1,8.94,2.83V28.54l8.16-2.94Zm-8.16-23a10,10,0,0,0-6.84-2.3c-5.85,0-9.34,3.75-9.34,9.6s2.76,10.07,9.08,10.07a9.07,9.07,0,0,0,7.1-2.9Z"/><path d="M99.32,62.68c3.49,0,5.86,2.3,5.86,5.59s-2.37,5.53-5.86,5.53-5.78-2.11-5.78-5.53S95.77,62.68,99.32,62.68Z"/></svg>